<?xml version="1.0" encoding="utf-8"?>
<!-- Uploaded to: SVG Repo, www.svgrepo.com, Generator: SVG Repo Mixer Tools -->
<svg width="800px" height="800px" viewBox="0 0 1024 1024" class="icon"  version="1.1" xmlns="http://www.w3.org/2000/svg"><path d="M683.8 238.1c0 12.3-1.3 24.4-3.8 36-4.3 20-12.2 38.8-22.8 55.5-30.2 47.3-83.2 78.6-143.4 78.6-59.7 0-112.2-30.8-142.5-77.3-11.4-17.4-19.6-37.1-24-58.1-2.3-11.2-3.5-22.8-3.5-34.6 0-93.9 76.1-170.1 170.1-170.1 9.5 0 18.9 0.8 28 2.3 7.1 1.2 14.1 2.8 20.8 4.8 69.9 20.9 121.1 86 121.1 162.9z" fill="#843A5F" /><path d="M513.7 411.2c-58.7 0-113-29.4-145.1-78.7-11.8-18.1-20-38-24.4-59.2-2.4-11.5-3.6-23.4-3.6-35.2 0-95.4 77.6-173.1 173.1-173.1 9.6 0 19.1 0.8 28.5 2.3 7.1 1.2 14.3 2.8 21.2 4.9 34.9 10.5 66.4 32.3 88.5 61.6 22.9 30.2 34.9 66.3 34.9 104.3 0 12.4-1.3 24.7-3.9 36.6-4.3 20.1-12.1 39.1-23.3 56.5-32 50.1-86.5 80-145.9 80z m0-340.1c-92.1 0-167.1 75-167.1 167.1 0 11.5 1.2 22.9 3.5 34 4.2 20.4 12.2 39.6 23.6 57.1 31 47.6 83.3 75.9 140 75.9 57.3 0 110-28.9 140.9-77.2 10.7-16.8 18.3-35.1 22.4-54.5 2.5-11.5 3.7-23.4 3.7-35.3 0-73.3-49-139.1-119.1-160.1-6.7-2-13.6-3.6-20.5-4.7-8.9-1.6-18.2-2.3-27.4-2.3z" fill="#843A5F" /><path d="M512.7 652.5m-214 0a214 214 0 1 0 428 0 214 214 0 1 0-428 0Z" fill="#AE9AA4" /><path d="M512.7 869.5c-58 0-112.5-22.6-153.5-63.6s-63.6-95.5-63.6-153.5 22.6-112.5 63.6-153.5 95.5-63.6 153.5-63.6S625.2 458 666.2 499s63.6 95.5 63.6 153.5S707.2 765 666.2 806s-95.5 63.5-153.5 63.5z m0-428.1c-116.4 0-211 94.7-211 211s94.7 211 211 211 211-94.7 211-211-94.6-211-211-211z" fill="#843A5F" /><path d="M512.7 573.7l-70.4-122h140.9z" fill="#FFFFFF" /><path d="M512.7 579.7l-75.6-131h151.3l-75.7 131z m-65.2-125l65.2 113 65.2-113H447.5z" fill="#843A5F" /><path d="M371.1 178.9v193.7c0 43.5 35.6 79.1 79.1 79.1H578c43.5 0 79.1-35.6 79.1-79.1V178.9" fill="#E6D8DF" /><path d="M578 454.7H450.3c-45.3 0-82.1-36.8-82.1-82.1V178.9h6v193.7c0 42 34.1 76.1 76.1 76.1H578c42 0 76.1-34.1 76.1-76.1V178.9h6v193.7c0 45.3-36.8 82.1-82.1 82.1z" fill="#843A5F" /><path d="M433.5 261.1m-67.9 0a67.9 67.9 0 1 0 135.8 0 67.9 67.9 0 1 0-135.8 0Z" fill="#FFFFFF" /><path d="M433.5 332c-39.1 0-70.9-31.8-70.9-70.9 0-39.1 31.8-70.9 70.9-70.9 39.1 0 70.9 31.8 70.9 70.9 0 39.1-31.8 70.9-70.9 70.9z m0-135.9c-35.8 0-64.9 29.1-64.9 64.9s29.1 64.9 64.9 64.9 64.9-29.1 64.9-64.9-29.1-64.9-64.9-64.9z" fill="#843A5F" /><path d="M594.1 261.1m-67.9 0a67.9 67.9 0 1 0 135.8 0 67.9 67.9 0 1 0-135.8 0Z" fill="#FFFFFF" /><path d="M594.1 332c-39.1 0-70.9-31.8-70.9-70.9 0-39.1 31.8-70.9 70.9-70.9 39.1 0 70.9 31.8 70.9 70.9 0.1 39.1-31.7 70.9-70.9 70.9z m0-135.9c-35.8 0-64.9 29.1-64.9 64.9s29.1 64.9 64.9 64.9S659 296.8 659 261s-29.1-64.9-64.9-64.9z" fill="#843A5F" /><path d="M533.6 275.8h-6c0-7.4-6-13.4-13.4-13.4s-13.4 6-13.4 13.4h-6c0-10.7 8.7-19.4 19.4-19.4 10.6 0 19.4 8.7 19.4 19.4zM513.9 407.8c-23.1 0-46.5-5.6-46.5-16.3h6c0 3.5 14.3 10.3 40.5 10.3s40.5-6.8 40.5-10.3h6c0 10.7-23.4 16.3-46.5 16.3z" fill="#843A5F" /><path d="M750.6 916.1H276.2c-6.6 0-12-5.4-12-12V528.5c0-6.6 5.4-12 12-12h474.5c6.6 0 12 5.4 12 12v375.6c-0.1 6.6-5.5 12-12.1 12z" fill="#FFFFFF" /><path d="M750.6 919.1H276.2c-8.3 0-15-6.7-15-15V528.5c0-8.3 6.7-15 15-15h474.5c8.3 0 15 6.7 15 15v375.6c-0.1 8.3-6.8 15-15.1 15zM276.2 519.5c-5 0-9 4-9 9v375.6c0 5 4 9 9 9h474.5c5 0 9-4 9-9V528.5c0-5-4-9-9-9H276.2z" fill="#843A5F" /><path d="M651.8 133.8C630 105 599.3 83.4 565 72.8l-1.7-0.5c-7-2.1-14.1-3.7-21.2-4.9h-0.1l-2.8-0.5c-8.4-1.3-17-1.9-25.6-1.9-95.4 0-173.1 77.6-173.1 173.1 0 11.9 1.2 23.7 3.6 35.2l0.4 1.8 1.7 0.5c6.8 2 13.8 3.7 20.8 4.8l3.6 0.6c8.3 1.2 16.8 1.8 25.2 1.8 38.5 0 74.9-12.4 105.3-35.7 22-16.9 39.8-39 51.5-64.1 3.1 6.2 6.5 12.2 10.3 18 22 33.5 55.1 58.6 93.1 70.5 1.5 0.5 2.9 0.9 4.4 1.3 6.1 1.7 12.5 3.2 18.8 4.2l2.8 0.5 0.6-2.8c2.6-11.9 3.9-24.2 3.9-36.6 0.3-38-11.8-74-34.7-104.3z" fill="#843A5F" /><path d="M786.2 745.6c-12.9 18-33.9 18-46.8 0s-12.9-47.1 0-65c12.9-18 33.9-18 46.8 0 12.9 17.9 12.9 47 0 65z" fill="#E6D8DF" /><path d="M762.8 762c-9.8 0-19-5.2-25.8-14.7-13.6-18.9-13.6-49.7 0-68.6 6.8-9.5 16-14.7 25.8-14.7s19 5.2 25.8 14.7c13.6 18.9 13.6 49.7 0 68.6-6.8 9.5-16 14.7-25.8 14.7z m0-91.9c-7.8 0-15.3 4.3-21 12.2-12.2 17-12.2 44.6 0 61.5 5.7 7.9 13.1 12.2 21 12.2 7.8 0 15.3-4.3 21-12.2 12.2-17 12.2-44.6 0-61.5-5.7-7.9-13.2-12.2-21-12.2z" fill="#843A5F" /><path d="M288 745.6c-12.9 18-33.9 18-46.8 0s-12.9-47.1 0-65c12.9-18 33.9-18 46.8 0 12.9 17.9 12.9 47 0 65z" fill="#E6D8DF" /><path d="M264.6 762c-9.8 0-19-5.2-25.8-14.7-13.6-18.9-13.6-49.7 0-68.6 6.8-9.5 16-14.7 25.8-14.7s19 5.2 25.8 14.7c13.6 18.9 13.6 49.7 0 68.6-6.8 9.5-16 14.7-25.8 14.7z m0-91.9c-7.8 0-15.3 4.3-21 12.2-12.2 17-12.2 44.6 0 61.5 5.7 7.9 13.1 12.2 21 12.2 7.8 0 15.3-4.3 21-12.2 12.2-17 12.2-44.6 0-61.5-5.7-7.9-13.1-12.2-21-12.2z" fill="#843A5F" /><path d="M432.8 710.6h11.8l24.1 38.4 24.1-38.4h11.8l-24 37.4h16.3v9.4h-22.2v9.4h22.2v9.4h-22.2v18.7h-11.3v-18.7h-22.2v-9.4h22.2v-9.4h-22.2V748H457l-24.2-37.4z" fill="#843A5F" /><path d="M671.1 818.6H372.6c-8.8 0-16-7.2-16-16V616.3c0-8.8 7.2-16 16-16h298.5c8.8 0 16 7.2 16 16v186.3c0 8.8-7.2 16-16 16zM372.6 608.3c-4.4 0-8 3.6-8 8v186.3c0 4.4 3.6 8 8 8h298.5c4.4 0 8-3.6 8-8V616.3c0-4.4-3.6-8-8-8H372.6z" fill="#843A5F" /><path d="M435.2 665.6l9-42.9h14.7c3.2 0 5.4 0.1 6.7 0.3 2.1 0.3 3.9 0.9 5.4 1.8s2.6 2.1 3.3 3.5 1.1 3.1 1.1 4.9c0 2.4-0.7 4.4-2 6.2s-3.4 3.1-6.2 4c2.2 0.6 3.9 1.7 5.2 3.2s1.9 3.3 1.9 5.3c0 2.6-0.7 5-2.2 7.3s-3.5 4-6.1 5-6.1 1.5-10.6 1.5h-20.2z m10.3-7h8.5c3.6 0 6-0.2 7.2-0.7s2.2-1.2 2.9-2.3 1.1-2.2 1.1-3.3c0-1.4-0.5-2.6-1.6-3.5s-2.8-1.4-5.3-1.4h-10.5l-2.3 11.2z m3.9-18.7h6.7c3 0 5.2-0.2 6.5-0.6s2.3-1.1 3-2.1 1-2 1-3.1-0.3-2-0.9-2.7-1.5-1.2-2.7-1.4c-0.6-0.1-2.2-0.2-4.7-0.2h-6.9l-2 10.1zM506.8 656.1h-17l-5.2 9.5h-9.1l24.3-42.9h9.8l7 42.9h-8.4l-1.4-9.5z m-1.1-7.2l-2.5-17.3-10.4 17.3h12.9zM556.3 665.6h-8.2l-11.6-28.9-6 28.9h-8.2l9-42.9h8.3l11.6 28.7 6-28.7h8.2l-9.1 42.9zM565.2 665.6l9-42.9h8.8l-3.8 18.3 19.9-18.3h11.8l-19.3 16.8 14.2 26.1h-10l-10.6-20.4-8.3 7.3-2.8 13.2h-8.9z" fill="#80385C" /><path d="M606.8 793.1h-79.3v-80.8h79.3v80.8z m-76.3-3h73.3v-74.8h-73.3v74.8z" fill="#843A5F" /></svg>